<mxfile host="app.diagrams.net" modified="2023-05-20T19:01:02.723Z" agent="Mozilla/5.0 (Macintosh; Intel Mac OS X 10.15; rv:109.0) Gecko/20100101 Firefox/113.0" etag="yiEZOZol5BDyZNn41ot2" version="21.2.9" type="device">
  <diagram name="Page-1" id="sqT0kXf1Uo6A8QGDq_-H">
    <mxGraphModel dx="2825" dy="1089" grid="1" gridSize="10" guides="1" tooltips="1" connect="1" arrows="1" fold="1" page="1" pageScale="1" pageWidth="850" pageHeight="1100" math="0" shadow="0">
      <root>
        <mxCell id="0" />
        <mxCell id="1" parent="0" />
        <mxCell id="RDSAiTC4yzeRNRmyHwlr-76" value="" style="rounded=0;whiteSpace=wrap;html=1;strokeColor=none;" vertex="1" parent="1">
          <mxGeometry x="-80" y="40" width="1040" height="720" as="geometry" />
        </mxCell>
        <mxCell id="RDSAiTC4yzeRNRmyHwlr-73" style="edgeStyle=orthogonalEdgeStyle;rounded=0;orthogonalLoop=1;jettySize=auto;html=1;exitX=1;exitY=0.5;exitDx=0;exitDy=0;entryX=0;entryY=0.5;entryDx=0;entryDy=0;strokeWidth=3;fillColor=#f5f5f5;strokeColor=#666666;" edge="1" parent="1" source="RDSAiTC4yzeRNRmyHwlr-4" target="RDSAiTC4yzeRNRmyHwlr-67">
          <mxGeometry relative="1" as="geometry" />
        </mxCell>
        <mxCell id="RDSAiTC4yzeRNRmyHwlr-4" value="" style="rounded=0;whiteSpace=wrap;html=1;fillColor=#f0a30a;strokeColor=#BD7000;fontColor=#000000;" vertex="1" parent="1">
          <mxGeometry x="360" y="225" width="30" height="30" as="geometry" />
        </mxCell>
        <mxCell id="RDSAiTC4yzeRNRmyHwlr-8" value="" style="rounded=0;whiteSpace=wrap;html=1;fillColor=#a0522d;strokeColor=#6D1F00;fontColor=#ffffff;" vertex="1" parent="1">
          <mxGeometry x="360" y="280" width="30" height="30" as="geometry" />
        </mxCell>
        <mxCell id="RDSAiTC4yzeRNRmyHwlr-64" style="edgeStyle=orthogonalEdgeStyle;rounded=0;orthogonalLoop=1;jettySize=auto;html=1;exitX=0;exitY=0.5;exitDx=0;exitDy=0;startArrow=classic;startFill=1;endArrow=none;endFill=0;strokeWidth=3;" edge="1" parent="1" source="RDSAiTC4yzeRNRmyHwlr-10">
          <mxGeometry relative="1" as="geometry">
            <mxPoint x="-40" y="355" as="targetPoint" />
          </mxGeometry>
        </mxCell>
        <mxCell id="RDSAiTC4yzeRNRmyHwlr-10" value="" style="rounded=0;whiteSpace=wrap;html=1;fillColor=#a0522d;strokeColor=#6D1F00;fontColor=#ffffff;" vertex="1" parent="1">
          <mxGeometry x="50" y="340" width="30" height="30" as="geometry" />
        </mxCell>
        <mxCell id="RDSAiTC4yzeRNRmyHwlr-63" style="edgeStyle=orthogonalEdgeStyle;rounded=0;orthogonalLoop=1;jettySize=auto;html=1;exitX=0;exitY=0.5;exitDx=0;exitDy=0;strokeWidth=3;" edge="1" parent="1" source="RDSAiTC4yzeRNRmyHwlr-14">
          <mxGeometry relative="1" as="geometry">
            <mxPoint x="-40" y="240" as="targetPoint" />
          </mxGeometry>
        </mxCell>
        <mxCell id="RDSAiTC4yzeRNRmyHwlr-14" value="" style="rounded=0;whiteSpace=wrap;html=1;fillColor=#f0a30a;strokeColor=#BD7000;fontColor=#000000;" vertex="1" parent="1">
          <mxGeometry x="50" y="225" width="30" height="30" as="geometry" />
        </mxCell>
        <mxCell id="RDSAiTC4yzeRNRmyHwlr-16" value="" style="rounded=0;whiteSpace=wrap;html=1;fillColor=#a0522d;strokeColor=#6D1F00;fontColor=#ffffff;" vertex="1" parent="1">
          <mxGeometry x="360" y="330" width="30" height="30" as="geometry" />
        </mxCell>
        <mxCell id="RDSAiTC4yzeRNRmyHwlr-44" value="" style="rounded=1;whiteSpace=wrap;html=1;fillColor=#dae8fc;strokeColor=#6c8ebf;strokeWidth=3;" vertex="1" parent="1">
          <mxGeometry x="80" y="120" width="280" height="560" as="geometry" />
        </mxCell>
        <mxCell id="RDSAiTC4yzeRNRmyHwlr-6" value="&amp;nbsp;compCmdSend" style="text;html=1;strokeColor=none;fillColor=none;align=center;verticalAlign=middle;whiteSpace=wrap;rounded=0;fontSize=15;spacingLeft=7;" vertex="1" parent="1">
          <mxGeometry x="269" y="225" width="60" height="30" as="geometry" />
        </mxCell>
        <mxCell id="RDSAiTC4yzeRNRmyHwlr-59" style="edgeStyle=orthogonalEdgeStyle;rounded=0;orthogonalLoop=1;jettySize=auto;html=1;entryX=0.208;entryY=0.025;entryDx=0;entryDy=0;entryPerimeter=0;" edge="1" parent="1" target="RDSAiTC4yzeRNRmyHwlr-26">
          <mxGeometry relative="1" as="geometry">
            <mxPoint x="161" y="370" as="sourcePoint" />
            <Array as="points">
              <mxPoint x="161" y="380" />
              <mxPoint x="161" y="380" />
            </Array>
          </mxGeometry>
        </mxCell>
        <mxCell id="RDSAiTC4yzeRNRmyHwlr-9" value="seqCmdBuff" style="text;html=1;strokeColor=none;fillColor=none;align=center;verticalAlign=middle;whiteSpace=wrap;rounded=0;fontSize=15;" vertex="1" parent="1">
          <mxGeometry x="110" y="340" width="60" height="30" as="geometry" />
        </mxCell>
        <mxCell id="RDSAiTC4yzeRNRmyHwlr-15" value="seqCmdStatus" style="text;html=1;strokeColor=none;fillColor=none;align=center;verticalAlign=middle;whiteSpace=wrap;rounded=0;fontSize=15;" vertex="1" parent="1">
          <mxGeometry x="110" y="225" width="60" height="30" as="geometry" />
        </mxCell>
        <mxCell id="RDSAiTC4yzeRNRmyHwlr-17" value="compCmdStat" style="text;html=1;strokeColor=none;fillColor=none;align=center;verticalAlign=middle;whiteSpace=wrap;rounded=0;fontSize=15;" vertex="1" parent="1">
          <mxGeometry x="271" y="330" width="60" height="30" as="geometry" />
        </mxCell>
        <mxCell id="RDSAiTC4yzeRNRmyHwlr-18" value="compCmdReg" style="text;html=1;strokeColor=none;fillColor=none;align=center;verticalAlign=middle;whiteSpace=wrap;rounded=0;fontSize=15;" vertex="1" parent="1">
          <mxGeometry x="269" y="280" width="60" height="30" as="geometry" />
        </mxCell>
        <mxCell id="RDSAiTC4yzeRNRmyHwlr-25" value="" style="shape=table;startSize=0;container=1;collapsible=0;childLayout=tableLayout;fillColor=#ffe6cc;strokeColor=#d79b00;" vertex="1" parent="1">
          <mxGeometry x="136" y="400" width="120" height="240" as="geometry" />
        </mxCell>
        <mxCell id="RDSAiTC4yzeRNRmyHwlr-26" value="" style="shape=tableRow;horizontal=0;startSize=0;swimlaneHead=0;swimlaneBody=0;strokeColor=inherit;top=0;left=0;bottom=0;right=0;collapsible=0;dropTarget=0;fillColor=none;points=[[0,0.5],[1,0.5]];portConstraint=eastwest;" vertex="1" parent="RDSAiTC4yzeRNRmyHwlr-25">
          <mxGeometry width="120" height="40" as="geometry" />
        </mxCell>
        <mxCell id="RDSAiTC4yzeRNRmyHwlr-27" value="OpCode" style="shape=partialRectangle;html=1;whiteSpace=wrap;connectable=0;strokeColor=inherit;overflow=hidden;fillColor=none;top=0;left=0;bottom=0;right=0;pointerEvents=1;" vertex="1" parent="RDSAiTC4yzeRNRmyHwlr-26">
          <mxGeometry width="60" height="40" as="geometry">
            <mxRectangle width="60" height="40" as="alternateBounds" />
          </mxGeometry>
        </mxCell>
        <mxCell id="RDSAiTC4yzeRNRmyHwlr-28" value="Handler" style="shape=partialRectangle;html=1;whiteSpace=wrap;connectable=0;strokeColor=inherit;overflow=hidden;fillColor=none;top=0;left=0;bottom=0;right=0;pointerEvents=1;" vertex="1" parent="RDSAiTC4yzeRNRmyHwlr-26">
          <mxGeometry x="60" width="60" height="40" as="geometry">
            <mxRectangle width="60" height="40" as="alternateBounds" />
          </mxGeometry>
        </mxCell>
        <mxCell id="RDSAiTC4yzeRNRmyHwlr-29" value="" style="shape=tableRow;horizontal=0;startSize=0;swimlaneHead=0;swimlaneBody=0;strokeColor=inherit;top=0;left=0;bottom=0;right=0;collapsible=0;dropTarget=0;fillColor=none;points=[[0,0.5],[1,0.5]];portConstraint=eastwest;" vertex="1" parent="RDSAiTC4yzeRNRmyHwlr-25">
          <mxGeometry y="40" width="120" height="40" as="geometry" />
        </mxCell>
        <mxCell id="RDSAiTC4yzeRNRmyHwlr-30" value="" style="shape=partialRectangle;html=1;whiteSpace=wrap;connectable=0;strokeColor=inherit;overflow=hidden;fillColor=none;top=0;left=0;bottom=0;right=0;pointerEvents=1;" vertex="1" parent="RDSAiTC4yzeRNRmyHwlr-29">
          <mxGeometry width="60" height="40" as="geometry">
            <mxRectangle width="60" height="40" as="alternateBounds" />
          </mxGeometry>
        </mxCell>
        <mxCell id="RDSAiTC4yzeRNRmyHwlr-31" value="" style="shape=partialRectangle;html=1;whiteSpace=wrap;connectable=0;strokeColor=inherit;overflow=hidden;fillColor=none;top=0;left=0;bottom=0;right=0;pointerEvents=1;" vertex="1" parent="RDSAiTC4yzeRNRmyHwlr-29">
          <mxGeometry x="60" width="60" height="40" as="geometry">
            <mxRectangle width="60" height="40" as="alternateBounds" />
          </mxGeometry>
        </mxCell>
        <mxCell id="RDSAiTC4yzeRNRmyHwlr-32" value="" style="shape=tableRow;horizontal=0;startSize=0;swimlaneHead=0;swimlaneBody=0;strokeColor=inherit;top=0;left=0;bottom=0;right=0;collapsible=0;dropTarget=0;fillColor=none;points=[[0,0.5],[1,0.5]];portConstraint=eastwest;" vertex="1" parent="RDSAiTC4yzeRNRmyHwlr-25">
          <mxGeometry y="80" width="120" height="40" as="geometry" />
        </mxCell>
        <mxCell id="RDSAiTC4yzeRNRmyHwlr-33" value="" style="shape=partialRectangle;html=1;whiteSpace=wrap;connectable=0;strokeColor=inherit;overflow=hidden;fillColor=none;top=0;left=0;bottom=0;right=0;pointerEvents=1;" vertex="1" parent="RDSAiTC4yzeRNRmyHwlr-32">
          <mxGeometry width="60" height="40" as="geometry">
            <mxRectangle width="60" height="40" as="alternateBounds" />
          </mxGeometry>
        </mxCell>
        <mxCell id="RDSAiTC4yzeRNRmyHwlr-34" value="" style="shape=partialRectangle;html=1;whiteSpace=wrap;connectable=0;strokeColor=inherit;overflow=hidden;fillColor=none;top=0;left=0;bottom=0;right=0;pointerEvents=1;" vertex="1" parent="RDSAiTC4yzeRNRmyHwlr-32">
          <mxGeometry x="60" width="60" height="40" as="geometry">
            <mxRectangle width="60" height="40" as="alternateBounds" />
          </mxGeometry>
        </mxCell>
        <mxCell id="RDSAiTC4yzeRNRmyHwlr-35" value="" style="shape=tableRow;horizontal=0;startSize=0;swimlaneHead=0;swimlaneBody=0;strokeColor=inherit;top=0;left=0;bottom=0;right=0;collapsible=0;dropTarget=0;fillColor=none;points=[[0,0.5],[1,0.5]];portConstraint=eastwest;" vertex="1" parent="RDSAiTC4yzeRNRmyHwlr-25">
          <mxGeometry y="120" width="120" height="40" as="geometry" />
        </mxCell>
        <mxCell id="RDSAiTC4yzeRNRmyHwlr-36" value="" style="shape=partialRectangle;html=1;whiteSpace=wrap;connectable=0;strokeColor=inherit;overflow=hidden;fillColor=none;top=0;left=0;bottom=0;right=0;pointerEvents=1;" vertex="1" parent="RDSAiTC4yzeRNRmyHwlr-35">
          <mxGeometry width="60" height="40" as="geometry">
            <mxRectangle width="60" height="40" as="alternateBounds" />
          </mxGeometry>
        </mxCell>
        <mxCell id="RDSAiTC4yzeRNRmyHwlr-37" value="" style="shape=partialRectangle;html=1;whiteSpace=wrap;connectable=0;strokeColor=inherit;overflow=hidden;fillColor=none;top=0;left=0;bottom=0;right=0;pointerEvents=1;" vertex="1" parent="RDSAiTC4yzeRNRmyHwlr-35">
          <mxGeometry x="60" width="60" height="40" as="geometry">
            <mxRectangle width="60" height="40" as="alternateBounds" />
          </mxGeometry>
        </mxCell>
        <mxCell id="RDSAiTC4yzeRNRmyHwlr-38" value="" style="shape=tableRow;horizontal=0;startSize=0;swimlaneHead=0;swimlaneBody=0;strokeColor=inherit;top=0;left=0;bottom=0;right=0;collapsible=0;dropTarget=0;fillColor=none;points=[[0,0.5],[1,0.5]];portConstraint=eastwest;" vertex="1" parent="RDSAiTC4yzeRNRmyHwlr-25">
          <mxGeometry y="160" width="120" height="40" as="geometry" />
        </mxCell>
        <mxCell id="RDSAiTC4yzeRNRmyHwlr-39" value="" style="shape=partialRectangle;html=1;whiteSpace=wrap;connectable=0;strokeColor=inherit;overflow=hidden;fillColor=none;top=0;left=0;bottom=0;right=0;pointerEvents=1;" vertex="1" parent="RDSAiTC4yzeRNRmyHwlr-38">
          <mxGeometry width="60" height="40" as="geometry">
            <mxRectangle width="60" height="40" as="alternateBounds" />
          </mxGeometry>
        </mxCell>
        <mxCell id="RDSAiTC4yzeRNRmyHwlr-40" value="" style="shape=partialRectangle;html=1;whiteSpace=wrap;connectable=0;strokeColor=inherit;overflow=hidden;fillColor=none;top=0;left=0;bottom=0;right=0;pointerEvents=1;" vertex="1" parent="RDSAiTC4yzeRNRmyHwlr-38">
          <mxGeometry x="60" width="60" height="40" as="geometry">
            <mxRectangle width="60" height="40" as="alternateBounds" />
          </mxGeometry>
        </mxCell>
        <mxCell id="RDSAiTC4yzeRNRmyHwlr-41" value="" style="shape=tableRow;horizontal=0;startSize=0;swimlaneHead=0;swimlaneBody=0;strokeColor=inherit;top=0;left=0;bottom=0;right=0;collapsible=0;dropTarget=0;fillColor=none;points=[[0,0.5],[1,0.5]];portConstraint=eastwest;" vertex="1" parent="RDSAiTC4yzeRNRmyHwlr-25">
          <mxGeometry y="200" width="120" height="40" as="geometry" />
        </mxCell>
        <mxCell id="RDSAiTC4yzeRNRmyHwlr-42" value="" style="shape=partialRectangle;html=1;whiteSpace=wrap;connectable=0;strokeColor=inherit;overflow=hidden;fillColor=none;top=0;left=0;bottom=0;right=0;pointerEvents=1;" vertex="1" parent="RDSAiTC4yzeRNRmyHwlr-41">
          <mxGeometry width="60" height="40" as="geometry">
            <mxRectangle width="60" height="40" as="alternateBounds" />
          </mxGeometry>
        </mxCell>
        <mxCell id="RDSAiTC4yzeRNRmyHwlr-43" value="" style="shape=partialRectangle;html=1;whiteSpace=wrap;connectable=0;strokeColor=inherit;overflow=hidden;fillColor=none;top=0;left=0;bottom=0;right=0;pointerEvents=1;" vertex="1" parent="RDSAiTC4yzeRNRmyHwlr-41">
          <mxGeometry x="60" width="60" height="40" as="geometry">
            <mxRectangle width="60" height="40" as="alternateBounds" />
          </mxGeometry>
        </mxCell>
        <mxCell id="RDSAiTC4yzeRNRmyHwlr-45" value="CmdDispatcher" style="text;html=1;strokeColor=none;fillColor=none;align=center;verticalAlign=middle;whiteSpace=wrap;rounded=0;fontSize=29;" vertex="1" parent="1">
          <mxGeometry x="190" y="140" width="60" height="30" as="geometry" />
        </mxCell>
        <mxCell id="RDSAiTC4yzeRNRmyHwlr-46" value="" style="rounded=1;whiteSpace=wrap;html=1;fillColor=#d5e8d4;strokeColor=#82b366;strokeWidth=3;" vertex="1" parent="1">
          <mxGeometry x="600" y="160" width="280" height="240" as="geometry" />
        </mxCell>
        <mxCell id="RDSAiTC4yzeRNRmyHwlr-47" value="Component A" style="text;html=1;strokeColor=none;fillColor=none;align=center;verticalAlign=middle;whiteSpace=wrap;rounded=0;fontSize=29;" vertex="1" parent="1">
          <mxGeometry x="640" y="170" width="200" height="30" as="geometry" />
        </mxCell>
        <mxCell id="RDSAiTC4yzeRNRmyHwlr-48" value="" style="rounded=0;whiteSpace=wrap;html=1;fillColor=#a0522d;strokeColor=#6D1F00;fontColor=#ffffff;" vertex="1" parent="1">
          <mxGeometry x="570" y="225" width="30" height="30" as="geometry" />
        </mxCell>
        <mxCell id="RDSAiTC4yzeRNRmyHwlr-49" value="" style="rounded=0;whiteSpace=wrap;html=1;fillColor=#f0a30a;strokeColor=#BD7000;fontColor=#000000;" vertex="1" parent="1">
          <mxGeometry x="570" y="330" width="30" height="30" as="geometry" />
        </mxCell>
        <mxCell id="RDSAiTC4yzeRNRmyHwlr-52" value="cmdIn" style="text;html=1;strokeColor=none;fillColor=none;align=center;verticalAlign=middle;whiteSpace=wrap;rounded=0;fontSize=15;" vertex="1" parent="1">
          <mxGeometry x="600" y="225" width="60" height="30" as="geometry" />
        </mxCell>
        <mxCell id="RDSAiTC4yzeRNRmyHwlr-53" value="cmdResponseOut" style="text;html=1;strokeColor=none;fillColor=none;align=center;verticalAlign=middle;whiteSpace=wrap;rounded=0;fontSize=15;" vertex="1" parent="1">
          <mxGeometry x="640" y="330" width="60" height="30" as="geometry" />
        </mxCell>
        <mxCell id="RDSAiTC4yzeRNRmyHwlr-54" value="" style="rounded=0;whiteSpace=wrap;html=1;fillColor=#f0a30a;strokeColor=#BD7000;fontColor=#000000;" vertex="1" parent="1">
          <mxGeometry x="570" y="280" width="30" height="30" as="geometry" />
        </mxCell>
        <mxCell id="RDSAiTC4yzeRNRmyHwlr-55" value="cmdRegOut" style="text;html=1;strokeColor=none;fillColor=none;align=center;verticalAlign=middle;whiteSpace=wrap;rounded=0;fontSize=15;" vertex="1" parent="1">
          <mxGeometry x="620" y="280" width="60" height="30" as="geometry" />
        </mxCell>
        <mxCell id="RDSAiTC4yzeRNRmyHwlr-60" style="edgeStyle=orthogonalEdgeStyle;rounded=0;orthogonalLoop=1;jettySize=auto;html=1;exitX=0.725;exitY=0.05;exitDx=0;exitDy=0;exitPerimeter=0;" edge="1" parent="1" source="RDSAiTC4yzeRNRmyHwlr-26">
          <mxGeometry relative="1" as="geometry">
            <mxPoint x="240" y="240" as="targetPoint" />
            <Array as="points">
              <mxPoint x="223" y="240" />
            </Array>
          </mxGeometry>
        </mxCell>
        <mxCell id="RDSAiTC4yzeRNRmyHwlr-65" value="" style="rounded=1;whiteSpace=wrap;html=1;fillColor=#d5e8d4;strokeColor=#82b366;strokeWidth=3;" vertex="1" parent="1">
          <mxGeometry x="600" y="440" width="280" height="240" as="geometry" />
        </mxCell>
        <mxCell id="RDSAiTC4yzeRNRmyHwlr-66" value="Component B" style="text;html=1;strokeColor=none;fillColor=none;align=center;verticalAlign=middle;whiteSpace=wrap;rounded=0;fontSize=29;" vertex="1" parent="1">
          <mxGeometry x="640" y="450" width="200" height="30" as="geometry" />
        </mxCell>
        <mxCell id="RDSAiTC4yzeRNRmyHwlr-67" value="" style="rounded=0;whiteSpace=wrap;html=1;fillColor=#a0522d;strokeColor=#6D1F00;fontColor=#ffffff;" vertex="1" parent="1">
          <mxGeometry x="570" y="505" width="30" height="30" as="geometry" />
        </mxCell>
        <mxCell id="RDSAiTC4yzeRNRmyHwlr-75" style="edgeStyle=orthogonalEdgeStyle;rounded=0;orthogonalLoop=1;jettySize=auto;html=1;exitX=0;exitY=0.5;exitDx=0;exitDy=0;entryX=1;entryY=0.5;entryDx=0;entryDy=0;strokeWidth=3;fillColor=#f5f5f5;strokeColor=#666666;" edge="1" parent="1" source="RDSAiTC4yzeRNRmyHwlr-68" target="RDSAiTC4yzeRNRmyHwlr-16">
          <mxGeometry relative="1" as="geometry">
            <Array as="points">
              <mxPoint x="440" y="625" />
              <mxPoint x="440" y="345" />
            </Array>
          </mxGeometry>
        </mxCell>
        <mxCell id="RDSAiTC4yzeRNRmyHwlr-68" value="" style="rounded=0;whiteSpace=wrap;html=1;fillColor=#f0a30a;strokeColor=#BD7000;fontColor=#000000;" vertex="1" parent="1">
          <mxGeometry x="570" y="610" width="30" height="30" as="geometry" />
        </mxCell>
        <mxCell id="RDSAiTC4yzeRNRmyHwlr-69" value="cmdIn" style="text;html=1;strokeColor=none;fillColor=none;align=center;verticalAlign=middle;whiteSpace=wrap;rounded=0;fontSize=15;" vertex="1" parent="1">
          <mxGeometry x="600" y="505" width="60" height="30" as="geometry" />
        </mxCell>
        <mxCell id="RDSAiTC4yzeRNRmyHwlr-70" value="cmdResponseOut" style="text;html=1;strokeColor=none;fillColor=none;align=center;verticalAlign=middle;whiteSpace=wrap;rounded=0;fontSize=15;" vertex="1" parent="1">
          <mxGeometry x="640" y="610" width="60" height="30" as="geometry" />
        </mxCell>
        <mxCell id="RDSAiTC4yzeRNRmyHwlr-74" style="edgeStyle=orthogonalEdgeStyle;rounded=0;orthogonalLoop=1;jettySize=auto;html=1;exitX=0;exitY=0.5;exitDx=0;exitDy=0;entryX=1;entryY=0.5;entryDx=0;entryDy=0;strokeWidth=3;fillColor=#f5f5f5;strokeColor=#666666;" edge="1" parent="1" source="RDSAiTC4yzeRNRmyHwlr-71" target="RDSAiTC4yzeRNRmyHwlr-8">
          <mxGeometry relative="1" as="geometry">
            <Array as="points">
              <mxPoint x="460" y="575" />
              <mxPoint x="460" y="295" />
            </Array>
          </mxGeometry>
        </mxCell>
        <mxCell id="RDSAiTC4yzeRNRmyHwlr-71" value="" style="rounded=0;whiteSpace=wrap;html=1;fillColor=#f0a30a;strokeColor=#BD7000;fontColor=#000000;" vertex="1" parent="1">
          <mxGeometry x="570" y="560" width="30" height="30" as="geometry" />
        </mxCell>
        <mxCell id="RDSAiTC4yzeRNRmyHwlr-72" value="cmdRegOut" style="text;html=1;strokeColor=none;fillColor=none;align=center;verticalAlign=middle;whiteSpace=wrap;rounded=0;fontSize=15;" vertex="1" parent="1">
          <mxGeometry x="620" y="560" width="60" height="30" as="geometry" />
        </mxCell>
        <mxCell id="RDSAiTC4yzeRNRmyHwlr-51" style="edgeStyle=orthogonalEdgeStyle;rounded=0;orthogonalLoop=1;jettySize=auto;html=1;exitX=1;exitY=0.5;exitDx=0;exitDy=0;strokeWidth=3;" edge="1" parent="1" source="RDSAiTC4yzeRNRmyHwlr-4" target="RDSAiTC4yzeRNRmyHwlr-48">
          <mxGeometry relative="1" as="geometry" />
        </mxCell>
        <mxCell id="RDSAiTC4yzeRNRmyHwlr-61" style="edgeStyle=orthogonalEdgeStyle;rounded=0;orthogonalLoop=1;jettySize=auto;html=1;exitX=0;exitY=0.5;exitDx=0;exitDy=0;entryX=1;entryY=0.5;entryDx=0;entryDy=0;strokeWidth=3;" edge="1" parent="1" source="RDSAiTC4yzeRNRmyHwlr-54" target="RDSAiTC4yzeRNRmyHwlr-8">
          <mxGeometry relative="1" as="geometry" />
        </mxCell>
        <mxCell id="RDSAiTC4yzeRNRmyHwlr-62" style="edgeStyle=orthogonalEdgeStyle;rounded=0;orthogonalLoop=1;jettySize=auto;html=1;exitX=0;exitY=0.5;exitDx=0;exitDy=0;entryX=1;entryY=0.5;entryDx=0;entryDy=0;strokeWidth=3;" edge="1" parent="1" source="RDSAiTC4yzeRNRmyHwlr-49" target="RDSAiTC4yzeRNRmyHwlr-16">
          <mxGeometry relative="1" as="geometry" />
        </mxCell>
      </root>
    </mxGraphModel>
  </diagram>
</mxfile>
